<mxfile host="app.diagrams.net" modified="2022-05-08T00:12:11.658Z" agent="5.0 (Windows NT 10.0; Win64; x64) AppleWebKit/537.36 (KHTML, like Gecko) Chrome/101.0.4951.54 Safari/537.36" etag="iZdXwnkHReB6-DDV60wO" version="18.0.2" type="github">
  <diagram id="BrNaa9qSeSl_PlG5yOju" name="Page-1">
    <mxGraphModel dx="1422" dy="762" grid="1" gridSize="10" guides="1" tooltips="1" connect="1" arrows="1" fold="1" page="1" pageScale="1" pageWidth="827" pageHeight="1169" math="0" shadow="0">
      <root>
        <mxCell id="0" />
        <mxCell id="1" parent="0" />
        <mxCell id="8QLlg-33kmUOQYi8h0Aq-8" value="./executable" style="edgeStyle=orthogonalEdgeStyle;rounded=0;orthogonalLoop=1;jettySize=auto;html=1;" parent="1" source="EGjiMCHx-5FTvRWDe-Qp-1" target="8QLlg-33kmUOQYi8h0Aq-6" edge="1">
          <mxGeometry y="15" relative="1" as="geometry">
            <mxPoint as="offset" />
            <mxPoint x="240" y="165" as="sourcePoint" />
            <mxPoint x="340" y="165" as="targetPoint" />
          </mxGeometry>
        </mxCell>
        <mxCell id="8QLlg-33kmUOQYi8h0Aq-6" value="&lt;ul&gt;&lt;li&gt;/ tforc_build&lt;/li&gt;&lt;ul&gt;&lt;li&gt;main.ll&lt;/li&gt;&lt;li&gt;main_instr.ll&lt;/li&gt;&lt;li&gt;...&lt;/li&gt;&lt;/ul&gt;&lt;li&gt;/ tforc_callback&lt;/li&gt;&lt;ul&gt;&lt;li&gt;main_CB.cpp&lt;/li&gt;&lt;/ul&gt;&lt;li&gt;/ tforc_query&lt;/li&gt;&lt;ul&gt;&lt;li&gt;main.query&lt;/li&gt;&lt;/ul&gt;&lt;li&gt;/ tforcov_logs&lt;/li&gt;&lt;li&gt;main.cpp&lt;/li&gt;&lt;li&gt;Makefile&lt;/li&gt;&lt;li&gt;executable&lt;/li&gt;&lt;/ul&gt;" style="rounded=1;absoluteArcSize=1;html=1;arcSize=10;align=left;verticalAlign=top;" parent="1" vertex="1">
          <mxGeometry x="330" y="80" width="180" height="220" as="geometry" />
        </mxCell>
        <mxCell id="8QLlg-33kmUOQYi8h0Aq-7" value="Výstup měření pokrytí v různých formátech (xml, yaml, json)." style="shape=note;size=20;whiteSpace=wrap;html=1;align=left;spacingLeft=5;spacingRight=5;" parent="1" vertex="1">
          <mxGeometry x="450" y="320" width="210" height="70" as="geometry" />
        </mxCell>
        <mxCell id="EGjiMCHx-5FTvRWDe-Qp-1" value="&lt;ul&gt;&lt;li&gt;/ tforc_build&lt;/li&gt;&lt;ul&gt;&lt;li&gt;main.ll&lt;/li&gt;&lt;li&gt;main_instr.ll&lt;/li&gt;&lt;li&gt;...&lt;/li&gt;&lt;/ul&gt;&lt;li&gt;/ tforc_callback&lt;/li&gt;&lt;ul&gt;&lt;li&gt;main_CB.cpp&lt;/li&gt;&lt;/ul&gt;&lt;li&gt;/ tforc_query&lt;/li&gt;&lt;ul&gt;&lt;li&gt;main.query&lt;/li&gt;&lt;/ul&gt;&lt;li&gt;main.cpp&lt;/li&gt;&lt;li&gt;Makefile&lt;/li&gt;&lt;li&gt;executable&lt;/li&gt;&lt;/ul&gt;" style="rounded=1;absoluteArcSize=1;html=1;arcSize=10;align=left;verticalAlign=top;" vertex="1" parent="1">
          <mxGeometry x="60" y="80" width="180" height="220" as="geometry" />
        </mxCell>
        <mxCell id="EGjiMCHx-5FTvRWDe-Qp-2" value="&lt;ul&gt;&lt;li&gt;/ tforc_build&lt;/li&gt;&lt;ul&gt;&lt;li&gt;main.ll&lt;/li&gt;&lt;li&gt;main_instr.ll&lt;/li&gt;&lt;li&gt;...&lt;/li&gt;&lt;/ul&gt;&lt;li&gt;/ tforc_callback&lt;/li&gt;&lt;ul&gt;&lt;li&gt;main_CB.cpp&lt;/li&gt;&lt;/ul&gt;&lt;li&gt;/ tforc_query&lt;/li&gt;&lt;ul&gt;&lt;li&gt;main.query&lt;/li&gt;&lt;/ul&gt;&lt;li&gt;/ tforcov_logs&lt;/li&gt;&lt;li&gt;/ tforcov_output&lt;/li&gt;&lt;li&gt;main.cpp&lt;/li&gt;&lt;li&gt;Makefile&lt;/li&gt;&lt;li&gt;executable&lt;/li&gt;&lt;/ul&gt;" style="rounded=1;absoluteArcSize=1;html=1;arcSize=10;align=left;verticalAlign=top;" vertex="1" parent="1">
          <mxGeometry x="620" y="80" width="180" height="220" as="geometry" />
        </mxCell>
        <mxCell id="EGjiMCHx-5FTvRWDe-Qp-3" value="tforcov coverage" style="edgeStyle=orthogonalEdgeStyle;rounded=0;orthogonalLoop=1;jettySize=auto;html=1;" edge="1" parent="1" source="8QLlg-33kmUOQYi8h0Aq-6" target="EGjiMCHx-5FTvRWDe-Qp-2">
          <mxGeometry y="15" relative="1" as="geometry">
            <mxPoint as="offset" />
            <mxPoint x="250" y="190" as="sourcePoint" />
            <mxPoint x="360" y="190" as="targetPoint" />
          </mxGeometry>
        </mxCell>
        <mxCell id="EGjiMCHx-5FTvRWDe-Qp-4" value="UUIDv4 named files are generated as a side effect of executed executable" style="shape=note;size=20;whiteSpace=wrap;html=1;align=left;" vertex="1" parent="1">
          <mxGeometry x="180" y="320" width="190" height="70" as="geometry" />
        </mxCell>
        <mxCell id="EGjiMCHx-5FTvRWDe-Qp-5" value="" style="html=1;verticalAlign=bottom;endArrow=open;dashed=1;endSize=8;rounded=0;" edge="1" source="EGjiMCHx-5FTvRWDe-Qp-4" parent="1">
          <mxGeometry relative="1" as="geometry">
            <mxPoint x="570" y="220" as="sourcePoint" />
            <mxPoint x="350" y="220" as="targetPoint" />
            <Array as="points">
              <mxPoint x="320" y="220" />
            </Array>
          </mxGeometry>
        </mxCell>
        <mxCell id="8QLlg-33kmUOQYi8h0Aq-11" value="" style="html=1;verticalAlign=bottom;endArrow=open;dashed=1;endSize=8;rounded=0;" parent="1" source="8QLlg-33kmUOQYi8h0Aq-7" edge="1">
          <mxGeometry relative="1" as="geometry">
            <mxPoint x="860" y="240" as="sourcePoint" />
            <mxPoint x="640" y="240" as="targetPoint" />
            <Array as="points">
              <mxPoint x="610" y="240" />
            </Array>
          </mxGeometry>
        </mxCell>
        <mxCell id="EGjiMCHx-5FTvRWDe-Qp-6" value="Soubory s UUIDv4 v názvu jsou generovány jako vedlejší efekt spuštění instrumentovaného programu." style="shape=note;size=20;whiteSpace=wrap;html=1;align=left;spacingLeft=5;spacingRight=5;" vertex="1" parent="1">
          <mxGeometry x="150" y="320" width="220" height="70" as="geometry" />
        </mxCell>
      </root>
    </mxGraphModel>
  </diagram>
</mxfile>
